<svg xmlns="http://www.w3.org/2000/svg" xmlns:xlink="http://www.w3.org/1999/xlink" width="132" zoomAndPan="magnify" viewBox="0 0 98.88 34.499999" height="46" preserveAspectRatio="xMidYMid meet" version="1.0"><defs><g/></defs><g fill="#000000" fill-opacity="1"><g transform="translate(5.498706, 29.203067)"><g><path d="M 9.328125 0.34375 C 7.054688 0.34375 5.203125 -0.320312 3.765625 -1.65625 C 2.335938 -3 1.625 -4.90625 1.625 -7.375 L 1.625 -8.765625 L 4.890625 -8.765625 L 4.890625 -7.375 C 4.890625 -5.789062 5.296875 -4.582031 6.109375 -3.75 C 6.921875 -2.925781 7.992188 -2.515625 9.328125 -2.515625 C 10.648438 -2.515625 11.71875 -2.925781 12.53125 -3.75 C 13.34375 -4.582031 13.75 -5.789062 13.75 -7.375 L 13.75 -25.8125 L 17 -25.8125 L 17 -7.375 C 17 -4.90625 16.285156 -3 14.859375 -1.65625 C 13.441406 -0.320312 11.597656 0.34375 9.328125 0.34375 Z M 9.328125 0.34375 "/></g></g></g><g fill="#000000" fill-opacity="1"><g transform="translate(25.470248, 29.203067)"><g><path d="M 10.4375 0.421875 C 8.6875 0.421875 7.15625 0.0078125 5.84375 -0.8125 C 4.53125 -1.644531 3.507812 -2.804688 2.78125 -4.296875 C 2.050781 -5.785156 1.6875 -7.503906 1.6875 -9.453125 C 1.6875 -11.441406 2.050781 -13.179688 2.78125 -14.671875 C 3.507812 -16.171875 4.53125 -17.332031 5.84375 -18.15625 C 7.15625 -18.988281 8.6875 -19.40625 10.4375 -19.40625 C 12.175781 -19.40625 13.703125 -18.988281 15.015625 -18.15625 C 16.335938 -17.332031 17.363281 -16.171875 18.09375 -14.671875 C 18.832031 -13.179688 19.203125 -11.441406 19.203125 -9.453125 C 19.203125 -7.503906 18.832031 -5.785156 18.09375 -4.296875 C 17.363281 -2.804688 16.335938 -1.644531 15.015625 -0.8125 C 13.703125 0.0078125 12.175781 0.421875 10.4375 0.421875 Z M 10.4375 -2.34375 C 11.707031 -2.34375 12.757812 -2.664062 13.59375 -3.3125 C 14.425781 -3.957031 15.046875 -4.816406 15.453125 -5.890625 C 15.867188 -6.972656 16.078125 -8.160156 16.078125 -9.453125 C 16.078125 -10.765625 15.867188 -11.960938 15.453125 -13.046875 C 15.046875 -14.140625 14.425781 -15.015625 13.59375 -15.671875 C 12.757812 -16.328125 11.707031 -16.65625 10.4375 -16.65625 C 9.175781 -16.65625 8.128906 -16.328125 7.296875 -15.671875 C 6.460938 -15.015625 5.835938 -14.144531 5.421875 -13.0625 C 5.003906 -11.976562 4.796875 -10.773438 4.796875 -9.453125 C 4.796875 -8.160156 5.003906 -6.972656 5.421875 -5.890625 C 5.835938 -4.816406 6.457031 -3.957031 7.28125 -3.3125 C 8.113281 -2.664062 9.164062 -2.34375 10.4375 -2.34375 Z M 10.4375 -2.34375 "/></g></g></g><g fill="#000000" fill-opacity="1"><g transform="translate(46.342502, 29.203067)"><g><path d="M 5.703125 -25.8125 L 5.703125 0 L 2.609375 0 L 2.609375 -25.8125 Z M 5.703125 -25.8125 "/></g></g></g><g fill="#000000" fill-opacity="1"><g transform="translate(54.656758, 29.203067)"><g><path d="M 8.078125 0.421875 C 6.847656 0.421875 5.738281 0.195312 4.75 -0.25 C 3.769531 -0.707031 2.988281 -1.375 2.40625 -2.25 C 1.820312 -3.125 1.53125 -4.191406 1.53125 -5.453125 C 1.53125 -6.554688 1.742188 -7.445312 2.171875 -8.125 C 2.609375 -8.800781 3.1875 -9.335938 3.90625 -9.734375 C 4.625 -10.140625 5.425781 -10.441406 6.3125 -10.640625 C 7.195312 -10.835938 8.09375 -10.992188 9 -11.109375 C 10.164062 -11.253906 11.101562 -11.367188 11.8125 -11.453125 C 12.519531 -11.535156 13.039062 -11.671875 13.375 -11.859375 C 13.71875 -12.046875 13.890625 -12.378906 13.890625 -12.859375 L 13.890625 -12.984375 C 13.890625 -13.753906 13.738281 -14.414062 13.4375 -14.96875 C 13.132812 -15.519531 12.679688 -15.941406 12.078125 -16.234375 C 11.472656 -16.535156 10.726562 -16.6875 9.84375 -16.6875 C 8.925781 -16.6875 8.140625 -16.546875 7.484375 -16.265625 C 6.835938 -15.984375 6.304688 -15.617188 5.890625 -15.171875 C 5.484375 -14.722656 5.203125 -14.25 5.046875 -13.75 L 2.046875 -14.53125 C 2.441406 -15.695312 3.035156 -16.632812 3.828125 -17.34375 C 4.628906 -18.0625 5.546875 -18.582031 6.578125 -18.90625 C 7.609375 -19.238281 8.671875 -19.40625 9.765625 -19.40625 C 10.503906 -19.40625 11.289062 -19.304688 12.125 -19.109375 C 12.957031 -18.921875 13.738281 -18.585938 14.46875 -18.109375 C 15.207031 -17.640625 15.804688 -16.96875 16.265625 -16.09375 C 16.734375 -15.226562 16.96875 -14.109375 16.96875 -12.734375 L 16.96875 0 L 13.9375 0 L 13.9375 -2.640625 L 13.75 -2.640625 C 13.53125 -2.179688 13.179688 -1.710938 12.703125 -1.234375 C 12.234375 -0.765625 11.617188 -0.367188 10.859375 -0.046875 C 10.097656 0.265625 9.171875 0.421875 8.078125 0.421875 Z M 8.578125 -2.328125 C 9.742188 -2.328125 10.71875 -2.546875 11.5 -2.984375 C 12.289062 -3.429688 12.882812 -4.007812 13.28125 -4.71875 C 13.6875 -5.4375 13.890625 -6.191406 13.890625 -6.984375 L 13.890625 -9.578125 C 13.765625 -9.441406 13.503906 -9.316406 13.109375 -9.203125 C 12.710938 -9.085938 12.25 -8.984375 11.71875 -8.890625 C 11.195312 -8.796875 10.675781 -8.71875 10.15625 -8.65625 C 9.644531 -8.59375 9.210938 -8.535156 8.859375 -8.484375 C 8.117188 -8.390625 7.421875 -8.226562 6.765625 -8 C 6.117188 -7.78125 5.597656 -7.457031 5.203125 -7.03125 C 4.816406 -6.601562 4.625 -6.023438 4.625 -5.296875 C 4.625 -4.648438 4.789062 -4.101562 5.125 -3.65625 C 5.46875 -3.21875 5.9375 -2.882812 6.53125 -2.65625 C 7.125 -2.4375 7.804688 -2.328125 8.578125 -2.328125 Z M 8.578125 -2.328125 "/></g></g></g><g fill="#000000" fill-opacity="1"><g transform="translate(74.229904, 29.203067)"><g><path d="M 5.515625 -6.875 L 5.515625 -10.65625 L 6 -10.65625 L 14.328125 -19.125 L 18.171875 -19.125 L 9.234375 -10.046875 L 8.90625 -10.046875 Z M 2.609375 0 L 2.609375 -25.8125 L 5.703125 -25.8125 L 5.703125 0 Z M 14.84375 0 L 7.421875 -9.375 L 9.59375 -11.546875 L 18.78125 0 Z M 14.84375 0 "/></g></g></g></svg>