<svg width="115" height="38" viewBox="0 0 115 38" fill="none" xmlns="http://www.w3.org/2000/svg">
<g filter="url(#filter0_dddi_1019_33137)">
<path d="M17 9C17 10.3845 16.5895 11.7378 15.8203 12.889C15.0511 14.0401 13.9579 14.9373 12.6788 15.4672C11.3997 15.997 9.99224 16.1356 8.63437 15.8655C7.2765 15.5954 6.02922 14.9287 5.05026 13.9497C4.07129 12.9708 3.4046 11.7235 3.13451 10.3656C2.86441 9.00777 3.00303 7.6003 3.53285 6.32122C4.06266 5.04213 4.95987 3.94888 6.11101 3.17971C7.26216 2.41054 8.61553 2 10 2C11.8565 2 13.637 2.7375 14.9498 4.05025C16.2625 5.36301 17 7.14348 17 9ZM17 31.3333V25.3333C17 23.5652 16.2976 21.8695 15.0474 20.6193C13.7971 19.369 12.1014 18.6667 10.3333 18.6667H9.66667C7.89856 18.6667 6.20287 19.369 4.95262 20.6193C3.70238 21.8695 3 23.5652 3 25.3333V31.3333C3 32.0406 3.28095 32.7189 3.78105 33.219C4.28115 33.719 4.95943 34 5.66667 34H14.3333C15.0406 34 15.7189 33.719 16.219 33.219C16.7191 32.7189 17 32.0406 17 31.3333ZM24.3333 29H35V21.3333C35 20.6261 34.7191 19.9478 34.219 19.4477C33.7189 18.9476 33.0406 18.6667 32.3333 18.6667H23.6667C22.9594 18.6667 22.2811 18.9476 21.7811 19.4477C21.281 19.9478 21 20.6261 21 21.3333V31.3333C21 32.0406 21.281 32.7189 21.7811 33.219C22.2811 33.719 22.9594 34 23.6667 34H35V32.3333H24.3333C23.8913 32.3333 23.4674 32.1577 23.1548 31.8452C22.8423 31.5326 22.6667 31.1087 22.6667 30.6667C22.6667 30.2246 22.8423 29.8007 23.1548 29.4882C23.4674 29.1756 23.8913 29 24.3333 29ZM21 7.66667V5.94L28 2.44L35 5.94V13.8133H33.2533V8.56L28 11.1867L21 7.66667ZM28 13.1267L31.5 11.3733V13.7933L28 15.56L22.7467 12.94V10.52L28 13.1267Z" fill="url(#paint0_linear_1019_33137)"/>
<path d="M17 9C17 10.3845 16.5895 11.7378 15.8203 12.889C15.0511 14.0401 13.9579 14.9373 12.6788 15.4672C11.3997 15.997 9.99224 16.1356 8.63437 15.8655C7.2765 15.5954 6.02922 14.9287 5.05026 13.9497C4.07129 12.9708 3.4046 11.7235 3.13451 10.3656C2.86441 9.00777 3.00303 7.6003 3.53285 6.32122C4.06266 5.04213 4.95987 3.94888 6.11101 3.17971C7.26216 2.41054 8.61553 2 10 2C11.8565 2 13.637 2.7375 14.9498 4.05025C16.2625 5.36301 17 7.14348 17 9ZM17 31.3333V25.3333C17 23.5652 16.2976 21.8695 15.0474 20.6193C13.7971 19.369 12.1014 18.6667 10.3333 18.6667H9.66667C7.89856 18.6667 6.20287 19.369 4.95262 20.6193C3.70238 21.8695 3 23.5652 3 25.3333V31.3333C3 32.0406 3.28095 32.7189 3.78105 33.219C4.28115 33.719 4.95943 34 5.66667 34H14.3333C15.0406 34 15.7189 33.719 16.219 33.219C16.7191 32.7189 17 32.0406 17 31.3333ZM24.3333 29H35V21.3333C35 20.6261 34.7191 19.9478 34.219 19.4477C33.7189 18.9476 33.0406 18.6667 32.3333 18.6667H23.6667C22.9594 18.6667 22.2811 18.9476 21.7811 19.4477C21.281 19.9478 21 20.6261 21 21.3333V31.3333C21 32.0406 21.281 32.7189 21.7811 33.219C22.2811 33.719 22.9594 34 23.6667 34H35V32.3333H24.3333C23.8913 32.3333 23.4674 32.1577 23.1548 31.8452C22.8423 31.5326 22.6667 31.1087 22.6667 30.6667C22.6667 30.2246 22.8423 29.8007 23.1548 29.4882C23.4674 29.1756 23.8913 29 24.3333 29ZM21 7.66667V5.94L28 2.44L35 5.94V13.8133H33.2533V8.56L28 11.1867L21 7.66667ZM28 13.1267L31.5 11.3733V13.7933L28 15.56L22.7467 12.94V10.52L28 13.1267Z" fill="url(#paint1_linear_1019_33137)" fill-opacity="0.2"/>
<path d="M9.66699 18.7666H10.333C12.0746 18.7666 13.7451 19.4589 14.9766 20.6904C16.2079 21.9218 16.9003 23.5916 16.9004 25.333V31.333C16.9004 32.0137 16.6298 32.6671 16.1484 33.1484C15.6671 33.6298 15.0137 33.9004 14.333 33.9004H5.66699C4.98627 33.9004 4.33291 33.6298 3.85156 33.1484C3.37022 32.6671 3.09961 32.0137 3.09961 31.333V25.333C3.0997 23.5916 3.79213 21.9218 5.02344 20.6904C6.25493 19.4589 7.9254 18.7666 9.66699 18.7666ZM23.667 18.7666H32.333C33.0137 18.7666 33.6671 19.0372 34.1484 19.5186C34.6296 19.9998 34.9003 20.6525 34.9004 21.333V28.9004H24.333C23.8647 28.9005 23.4152 29.0859 23.084 29.417C22.7527 29.7483 22.5664 30.1984 22.5664 30.667C22.5665 31.1354 22.7527 31.5848 23.084 31.916C23.4152 32.2473 23.8646 32.4335 24.333 32.4336H34.9004V33.9004H23.667C22.9863 33.9004 22.3329 33.6298 21.8516 33.1484C21.3702 32.6671 21.0996 32.0137 21.0996 31.333V21.333C21.0997 20.6525 21.3704 19.9998 21.8516 19.5186C22.3329 19.0372 22.9863 18.7666 23.667 18.7666ZM10 2.09961C11.83 2.09961 13.5849 2.82709 14.8789 4.12109C16.1729 5.41509 16.9004 7.17001 16.9004 9C16.9004 10.3645 16.4953 11.6984 15.7373 12.833C14.9791 13.9677 13.9014 14.8528 12.6406 15.375C11.38 15.8972 9.99263 16.0337 8.6543 15.7676C7.31583 15.5013 6.08608 14.8439 5.12109 13.8789C4.15611 12.9139 3.49866 11.6842 3.23242 10.3457C2.9663 9.00737 3.10281 7.62005 3.625 6.35938C4.14725 5.09857 5.0323 4.02087 6.16699 3.2627C7.30161 2.50467 8.63546 2.09961 10 2.09961ZM27.9551 13.2158L28 13.2383L28.0449 13.2158L31.4004 11.5352V13.7314L27.999 15.4473L22.8467 12.8779V10.6807L27.9551 13.2158ZM34.9004 6.00195V13.7129H33.3535V8.39844L33.209 8.4707L28 11.0742L21.0996 7.60449V6.00195L28 2.55176L34.9004 6.00195Z" stroke="#0A0D12" stroke-opacity="0.12" stroke-width="0.2"/>
</g>
<path d="M46.2642 26V11.4545H52.0028C53.1061 11.4545 54.0459 11.6652 54.8224 12.0866C55.599 12.5033 56.1908 13.0833 56.598 13.8267C57.0099 14.5653 57.2159 15.4176 57.2159 16.3835C57.2159 17.3494 57.0076 18.2017 56.5909 18.9403C56.1742 19.679 55.5705 20.2543 54.7798 20.6662C53.9938 21.0781 53.0421 21.2841 51.9247 21.2841H48.267V18.8196H51.4276C52.0194 18.8196 52.5071 18.7178 52.8906 18.5142C53.2789 18.3059 53.5677 18.0194 53.7571 17.6548C53.9512 17.2855 54.0483 16.8617 54.0483 16.3835C54.0483 15.9006 53.9512 15.4792 53.7571 15.1193C53.5677 14.7547 53.2789 14.473 52.8906 14.2741C52.5024 14.0705 52.0099 13.9688 51.4134 13.9688H49.3395V26H46.2642ZM58.8134 26V11.4545H61.8887V17.8679H62.0805L67.3148 11.4545H71.0009L65.6032 17.9673L71.0648 26H67.3859L63.4015 20.0199L61.8887 21.8665V26H58.8134ZM76.4314 26V11.4545H79.5067V17.456H85.7496V11.4545H88.8178V26H85.7496V19.9915H79.5067V26H76.4314ZM97.8922 21.3551V15.0909H100.918V26H98.0129V24.0185H97.8993C97.6531 24.6577 97.2435 25.1714 96.6706 25.5597C96.1024 25.9479 95.4088 26.142 94.5896 26.142C93.8605 26.142 93.2189 25.9763 92.6649 25.6449C92.1109 25.3134 91.6777 24.8423 91.3652 24.2315C91.0574 23.6207 90.9012 22.8892 90.8965 22.0369V15.0909H93.922V21.4972C93.9268 22.1411 94.0996 22.6501 94.4405 23.0241C94.7814 23.3982 95.2383 23.5852 95.8112 23.5852C96.1758 23.5852 96.5167 23.5024 96.834 23.3366C97.1512 23.1662 97.4069 22.9152 97.601 22.5838C97.7999 22.2524 97.8969 21.8428 97.8922 21.3551ZM102.995 26V11.4545H106.02V16.9233H106.113C106.245 16.6297 106.437 16.3314 106.688 16.0284C106.944 15.7206 107.275 15.465 107.682 15.2614C108.094 15.053 108.605 14.9489 109.216 14.9489C110.012 14.9489 110.746 15.1572 111.418 15.5739C112.09 15.9858 112.628 16.6084 113.03 17.4418C113.433 18.2704 113.634 19.3097 113.634 20.5597C113.634 21.7765 113.437 22.804 113.044 23.642C112.656 24.4754 112.126 25.1075 111.453 25.5384C110.786 25.9645 110.038 26.1776 109.209 26.1776C108.622 26.1776 108.123 26.0805 107.711 25.8864C107.303 25.6922 106.97 25.4484 106.709 25.1548C106.449 24.8565 106.25 24.5559 106.113 24.2528H105.978V26H102.995ZM105.956 20.5455C105.956 21.1941 106.046 21.7599 106.226 22.2429C106.406 22.7259 106.667 23.1023 107.007 23.3722C107.348 23.6373 107.763 23.7699 108.25 23.7699C108.743 23.7699 109.159 23.6349 109.5 23.3651C109.841 23.0904 110.099 22.7116 110.275 22.2287C110.454 21.741 110.544 21.1799 110.544 20.5455C110.544 19.9157 110.457 19.3617 110.282 18.8835C110.106 18.4053 109.848 18.0312 109.507 17.7614C109.167 17.4915 108.748 17.3565 108.25 17.3565C107.758 17.3565 107.341 17.4867 107 17.7472C106.664 18.0076 106.406 18.3769 106.226 18.8551C106.046 19.3333 105.956 19.8968 105.956 20.5455Z" fill="#181D27"/>
<defs>
<filter id="filter0_dddi_1019_33137" x="0" y="0" width="38" height="38" filterUnits="userSpaceOnUse" color-interpolation-filters="sRGB">
<feFlood flood-opacity="0" result="BackgroundImageFix"/>
<feColorMatrix in="SourceAlpha" type="matrix" values="0 0 0 0 0 0 0 0 0 0 0 0 0 0 0 0 0 0 127 0" result="hardAlpha"/>
<feOffset dy="1"/>
<feGaussianBlur stdDeviation="1"/>
<feComposite in2="hardAlpha" operator="out"/>
<feColorMatrix type="matrix" values="0 0 0 0 0.0392157 0 0 0 0 0.0509804 0 0 0 0 0.0705882 0 0 0 0.06 0"/>
<feBlend mode="normal" in2="BackgroundImageFix" result="effect1_dropShadow_1019_33137"/>
<feColorMatrix in="SourceAlpha" type="matrix" values="0 0 0 0 0 0 0 0 0 0 0 0 0 0 0 0 0 0 127 0" result="hardAlpha"/>
<feOffset dy="1"/>
<feGaussianBlur stdDeviation="1.5"/>
<feComposite in2="hardAlpha" operator="out"/>
<feColorMatrix type="matrix" values="0 0 0 0 0.0392157 0 0 0 0 0.0509804 0 0 0 0 0.0705882 0 0 0 0.1 0"/>
<feBlend mode="normal" in2="effect1_dropShadow_1019_33137" result="effect2_dropShadow_1019_33137"/>
<feColorMatrix in="SourceAlpha" type="matrix" values="0 0 0 0 0 0 0 0 0 0 0 0 0 0 0 0 0 0 127 0" result="hardAlpha"/>
<feMorphology radius="1" operator="erode" in="SourceAlpha" result="effect3_dropShadow_1019_33137"/>
<feOffset dy="1"/>
<feGaussianBlur stdDeviation="0.5"/>
<feComposite in2="hardAlpha" operator="out"/>
<feColorMatrix type="matrix" values="0 0 0 0 0.0392157 0 0 0 0 0.0509804 0 0 0 0 0.0705882 0 0 0 0.13 0"/>
<feBlend mode="normal" in2="effect2_dropShadow_1019_33137" result="effect3_dropShadow_1019_33137"/>
<feBlend mode="normal" in="SourceGraphic" in2="effect3_dropShadow_1019_33137" result="shape"/>
<feColorMatrix in="SourceAlpha" type="matrix" values="0 0 0 0 0 0 0 0 0 0 0 0 0 0 0 0 0 0 127 0" result="hardAlpha"/>
<feOffset dy="-0.5"/>
<feGaussianBlur stdDeviation="0.25"/>
<feComposite in2="hardAlpha" operator="arithmetic" k2="-1" k3="1"/>
<feColorMatrix type="matrix" values="0 0 0 0 0.0392157 0 0 0 0 0.0509804 0 0 0 0 0.0705882 0 0 0 0.1 0"/>
<feBlend mode="normal" in2="shape" result="effect4_innerShadow_1019_33137"/>
</filter>
<linearGradient id="paint0_linear_1019_33137" x1="11.5396" y1="35.7721" x2="29.4604" y2="0.727901" gradientUnits="userSpaceOnUse">
<stop stop-color="#1E5448"/>
<stop offset="1" stop-color="#1F6859"/>
</linearGradient>
<linearGradient id="paint1_linear_1019_33137" x1="19" y1="2" x2="19" y2="34" gradientUnits="userSpaceOnUse">
<stop stop-color="white"/>
<stop offset="1" stop-color="#0A0D12"/>
</linearGradient>
</defs>
</svg>
